<svg xmlns="http://www.w3.org/2000/svg" width="1000" height="300" viewBox="0 0 1000 300" font-family="Segoe UI, Ubuntu, sans-serif">
<rect width="1000" height="300" rx="10" fill="#1f1f1f"/>
<text x="500" y="32" fill="#E23E63" font-size="18" font-weight="600" text-anchor="middle">1,304 contributions in the last year</text>
<defs><linearGradient id="g" x1="0" y1="0" x2="0" y2="1"><stop offset="0%" stop-color="#AE1D41" stop-opacity="0.55"/><stop offset="100%" stop-color="#AE1D41" stop-opacity="0.02"/></linearGradient></defs>
<line x1="62" y1="254.0" x2="976" y2="254.0" stroke="#E23E63" stroke-opacity="0.13" stroke-dasharray="3 4"/>
<text x="52" y="258.0" fill="#8b949e" font-size="11" text-anchor="end">0</text>
<line x1="62" y1="205.0" x2="976" y2="205.0" stroke="#E23E63" stroke-opacity="0.13" stroke-dasharray="3 4"/>
<text x="52" y="209.0" fill="#8b949e" font-size="11" text-anchor="end">100</text>
<line x1="62" y1="156.0" x2="976" y2="156.0" stroke="#E23E63" stroke-opacity="0.13" stroke-dasharray="3 4"/>
<text x="52" y="160.0" fill="#8b949e" font-size="11" text-anchor="end">200</text>
<line x1="62" y1="107.0" x2="976" y2="107.0" stroke="#E23E63" stroke-opacity="0.13" stroke-dasharray="3 4"/>
<text x="52" y="111.0" fill="#8b949e" font-size="11" text-anchor="end">300</text>
<line x1="62" y1="58.0" x2="976" y2="58.0" stroke="#E23E63" stroke-opacity="0.13" stroke-dasharray="3 4"/>
<text x="52" y="62.0" fill="#8b949e" font-size="11" text-anchor="end">400</text>
<path d="M 62.0 246.2 C 64.9 247.1, 73.7 250.7, 79.6 252.0 C 85.4 253.3, 91.3 254.3, 97.2 254.0 C 103.0 253.7, 108.9 250.1, 114.7 250.1 C 120.6 250.1, 126.4 253.3, 132.3 254.0 C 138.2 254.7, 144.0 254.2, 149.9 254.0 C 155.7 253.8, 161.6 252.5, 167.5 252.5 C 173.3 252.5, 179.2 253.8, 185.0 254.0 C 190.9 254.2, 196.8 253.9, 202.6 253.5 C 208.5 253.1, 214.3 252.0, 220.2 251.6 C 226.1 251.1, 231.9 250.7, 237.8 251.1 C 243.6 251.4, 249.5 253.2, 255.3 253.5 C 261.2 253.8, 267.1 255.1, 272.9 253.0 C 278.8 251.0, 284.6 241.8, 290.5 241.3 C 296.4 240.8, 302.2 249.8, 308.1 250.1 C 313.9 250.4, 319.8 243.6, 325.7 243.2 C 331.5 242.8, 337.4 246.3, 343.2 247.6 C 349.1 248.9, 354.9 251.6, 360.8 251.1 C 366.7 250.6, 372.5 245.8, 378.4 244.7 C 384.2 243.6, 390.1 243.4, 396.0 244.7 C 401.8 246.0, 407.7 251.1, 413.5 252.5 C 419.4 254.0, 425.3 253.5, 431.1 253.5 C 437.0 253.5, 442.8 252.4, 448.7 252.5 C 454.6 252.6, 460.4 253.8, 466.3 254.0 C 472.1 254.2, 478.0 253.5, 483.8 253.5 C 489.7 253.5, 495.6 253.9, 501.4 254.0 C 507.3 254.1, 513.1 254.2, 519.0 254.0 C 524.9 253.8, 530.7 253.2, 536.6 252.5 C 542.4 251.9, 548.3 250.7, 554.2 250.1 C 560.0 249.5, 565.9 248.4, 571.7 249.1 C 577.6 249.8, 583.4 253.2, 589.3 254.0 C 595.2 254.8, 601.0 254.6, 606.9 254.0 C 612.7 253.4, 618.6 250.8, 624.5 250.6 C 630.3 250.3, 636.2 252.4, 642.0 252.5 C 647.9 252.6, 653.8 251.1, 659.6 251.1 C 665.5 251.0, 671.3 251.7, 677.2 252.0 C 683.1 252.4, 688.9 252.7, 694.8 253.0 C 700.6 253.3, 706.5 253.9, 712.3 254.0 C 718.2 254.1, 724.1 254.7, 729.9 253.5 C 735.8 252.4, 741.6 268.8, 747.5 247.1 C 753.4 225.5, 759.2 125.4, 765.1 123.7 C 770.9 121.9, 776.8 216.4, 782.7 236.8 C 788.5 257.3, 794.4 254.3, 800.2 246.2 C 806.1 238.0, 811.9 190.7, 817.8 187.8 C 823.7 185.0, 829.5 221.3, 835.4 229.0 C 841.2 236.7, 847.1 234.6, 853.0 233.9 C 858.8 233.3, 864.7 226.0, 870.5 225.1 C 876.4 224.2, 882.3 228.0, 888.1 228.5 C 894.0 229.0, 899.8 229.2, 905.7 228.0 C 911.6 226.9, 917.4 218.8, 923.3 221.7 C 929.1 224.5, 935.0 250.9, 940.8 245.2 C 946.7 239.5, 952.6 198.2, 958.4 187.4 C 964.3 176.5, 973.1 181.2, 976.0 180.0 L 976.0 254.0 L 62.0 254.0 Z" fill="url(#g)"/>
<path d="M 62.0 246.2 C 64.9 247.1, 73.7 250.7, 79.6 252.0 C 85.4 253.3, 91.3 254.3, 97.2 254.0 C 103.0 253.7, 108.9 250.1, 114.7 250.1 C 120.6 250.1, 126.4 253.3, 132.3 254.0 C 138.2 254.7, 144.0 254.2, 149.9 254.0 C 155.7 253.8, 161.6 252.5, 167.5 252.5 C 173.3 252.5, 179.2 253.8, 185.0 254.0 C 190.9 254.2, 196.8 253.9, 202.6 253.5 C 208.5 253.1, 214.3 252.0, 220.2 251.6 C 226.1 251.1, 231.9 250.7, 237.8 251.1 C 243.6 251.4, 249.5 253.2, 255.3 253.5 C 261.2 253.8, 267.1 255.1, 272.9 253.0 C 278.8 251.0, 284.6 241.8, 290.5 241.3 C 296.4 240.8, 302.2 249.8, 308.1 250.1 C 313.9 250.4, 319.8 243.6, 325.7 243.2 C 331.5 242.8, 337.4 246.3, 343.2 247.6 C 349.1 248.9, 354.9 251.6, 360.8 251.1 C 366.7 250.6, 372.5 245.8, 378.4 244.7 C 384.2 243.6, 390.1 243.4, 396.0 244.7 C 401.8 246.0, 407.7 251.1, 413.5 252.5 C 419.4 254.0, 425.3 253.5, 431.1 253.5 C 437.0 253.5, 442.8 252.4, 448.7 252.5 C 454.6 252.6, 460.4 253.8, 466.3 254.0 C 472.1 254.2, 478.0 253.5, 483.8 253.5 C 489.7 253.5, 495.6 253.9, 501.4 254.0 C 507.3 254.1, 513.1 254.2, 519.0 254.0 C 524.9 253.8, 530.7 253.2, 536.6 252.5 C 542.4 251.9, 548.3 250.7, 554.2 250.1 C 560.0 249.5, 565.9 248.4, 571.7 249.1 C 577.6 249.8, 583.4 253.2, 589.3 254.0 C 595.2 254.8, 601.0 254.6, 606.9 254.0 C 612.7 253.4, 618.6 250.8, 624.5 250.6 C 630.3 250.3, 636.2 252.4, 642.0 252.5 C 647.9 252.6, 653.8 251.1, 659.6 251.1 C 665.5 251.0, 671.3 251.7, 677.2 252.0 C 683.1 252.4, 688.9 252.7, 694.8 253.0 C 700.6 253.3, 706.5 253.9, 712.3 254.0 C 718.2 254.1, 724.1 254.7, 729.9 253.5 C 735.8 252.4, 741.6 268.8, 747.5 247.1 C 753.4 225.5, 759.2 125.4, 765.1 123.7 C 770.9 121.9, 776.8 216.4, 782.7 236.8 C 788.5 257.3, 794.4 254.3, 800.2 246.2 C 806.1 238.0, 811.9 190.7, 817.8 187.8 C 823.7 185.0, 829.5 221.3, 835.4 229.0 C 841.2 236.7, 847.1 234.6, 853.0 233.9 C 858.8 233.3, 864.7 226.0, 870.5 225.1 C 876.4 224.2, 882.3 228.0, 888.1 228.5 C 894.0 229.0, 899.8 229.2, 905.7 228.0 C 911.6 226.9, 917.4 218.8, 923.3 221.7 C 929.1 224.5, 935.0 250.9, 940.8 245.2 C 946.7 239.5, 952.6 198.2, 958.4 187.4 C 964.3 176.5, 973.1 181.2, 976.0 180.0" fill="none" stroke="#E23E63" stroke-width="2.5" stroke-linecap="round"/>
<text x="132.3" y="276" fill="#8b949e" font-size="11" text-anchor="middle">Sep</text>
<text x="202.6" y="276" fill="#8b949e" font-size="11" text-anchor="middle">Oct</text>
<text x="272.9" y="276" fill="#8b949e" font-size="11" text-anchor="middle">Nov</text>
<text x="360.8" y="276" fill="#8b949e" font-size="11" text-anchor="middle">Dec</text>
<text x="431.1" y="276" fill="#8b949e" font-size="11" text-anchor="middle">Jan</text>
<text x="501.4" y="276" fill="#8b949e" font-size="11" text-anchor="middle">Feb</text>
<text x="571.7" y="276" fill="#8b949e" font-size="11" text-anchor="middle">Mar</text>
<text x="659.6" y="276" fill="#8b949e" font-size="11" text-anchor="middle">Apr</text>
<text x="729.9" y="276" fill="#8b949e" font-size="11" text-anchor="middle">May</text>
<text x="817.8" y="276" fill="#8b949e" font-size="11" text-anchor="middle">Jun</text>
<text x="888.1" y="276" fill="#8b949e" font-size="11" text-anchor="middle">Jul</text>
<text x="958.4" y="276" fill="#8b949e" font-size="11" text-anchor="middle">Aug</text>
<text x="500" y="290" fill="#8b949e" font-size="10" text-anchor="middle" letter-spacing="1">CONTRIBUTIONS PER WEEK</text>
</svg>