<svg xmlns="http://www.w3.org/2000/svg" width="1000" height="300" viewBox="0 0 1000 300" font-family="Segoe UI, Ubuntu, sans-serif">
<rect width="1000" height="300" rx="10" fill="#1f1f1f"/>
<text x="500" y="32" fill="#E23E63" font-size="18" font-weight="600" text-anchor="middle">1,365 contributions in the last year</text>
<defs><linearGradient id="g" x1="0" y1="0" x2="0" y2="1"><stop offset="0%" stop-color="#AE1D41" stop-opacity="0.55"/><stop offset="100%" stop-color="#AE1D41" stop-opacity="0.02"/></linearGradient></defs>
<line x1="62" y1="254.0" x2="976" y2="254.0" stroke="#E23E63" stroke-opacity="0.13" stroke-dasharray="3 4"/>
<text x="52" y="258.0" fill="#8b949e" font-size="11" text-anchor="end">0</text>
<line x1="62" y1="205.0" x2="976" y2="205.0" stroke="#E23E63" stroke-opacity="0.13" stroke-dasharray="3 4"/>
<text x="52" y="209.0" fill="#8b949e" font-size="11" text-anchor="end">100</text>
<line x1="62" y1="156.0" x2="976" y2="156.0" stroke="#E23E63" stroke-opacity="0.13" stroke-dasharray="3 4"/>
<text x="52" y="160.0" fill="#8b949e" font-size="11" text-anchor="end">200</text>
<line x1="62" y1="107.0" x2="976" y2="107.0" stroke="#E23E63" stroke-opacity="0.13" stroke-dasharray="3 4"/>
<text x="52" y="111.0" fill="#8b949e" font-size="11" text-anchor="end">300</text>
<line x1="62" y1="58.0" x2="976" y2="58.0" stroke="#E23E63" stroke-opacity="0.13" stroke-dasharray="3 4"/>
<text x="52" y="62.0" fill="#8b949e" font-size="11" text-anchor="end">400</text>
<path d="M 62.0 252.0 C 64.9 252.4, 73.7 254.3, 79.6 254.0 C 85.4 253.7, 91.3 250.1, 97.2 250.1 C 103.0 250.1, 108.9 253.3, 114.7 254.0 C 120.6 254.7, 126.4 254.2, 132.3 254.0 C 138.2 253.8, 144.0 252.5, 149.9 252.5 C 155.7 252.5, 161.6 253.8, 167.5 254.0 C 173.3 254.2, 179.2 253.9, 185.0 253.5 C 190.9 253.1, 196.8 252.0, 202.6 251.6 C 208.5 251.1, 214.3 250.7, 220.2 251.1 C 226.1 251.4, 231.9 253.2, 237.8 253.5 C 243.6 253.8, 249.5 255.1, 255.3 253.0 C 261.2 251.0, 267.1 241.8, 272.9 241.3 C 278.8 240.8, 284.6 249.8, 290.5 250.1 C 296.4 250.4, 302.2 243.6, 308.1 243.2 C 313.9 242.8, 319.8 246.3, 325.7 247.6 C 331.5 248.9, 337.4 251.6, 343.2 251.1 C 349.1 250.6, 354.9 245.8, 360.8 244.7 C 366.7 243.6, 372.5 243.4, 378.4 244.7 C 384.2 246.0, 390.1 251.1, 396.0 252.5 C 401.8 254.0, 407.7 253.5, 413.5 253.5 C 419.4 253.5, 425.3 252.4, 431.1 252.5 C 437.0 252.6, 442.8 253.8, 448.7 254.0 C 454.6 254.2, 460.4 253.5, 466.3 253.5 C 472.1 253.5, 478.0 253.9, 483.8 254.0 C 489.7 254.1, 495.6 254.2, 501.4 254.0 C 507.3 253.8, 513.1 253.2, 519.0 252.5 C 524.9 251.9, 530.7 250.7, 536.6 250.1 C 542.4 249.5, 548.3 248.4, 554.2 249.1 C 560.0 249.8, 565.9 253.2, 571.7 254.0 C 577.6 254.8, 583.4 254.6, 589.3 254.0 C 595.2 253.4, 601.0 250.8, 606.9 250.6 C 612.7 250.3, 618.6 252.4, 624.5 252.5 C 630.3 252.6, 636.2 251.1, 642.0 251.1 C 647.9 251.0, 653.8 251.7, 659.6 252.0 C 665.5 252.4, 671.3 252.7, 677.2 253.0 C 683.1 253.3, 688.9 253.9, 694.8 254.0 C 700.6 254.1, 706.5 254.7, 712.3 253.5 C 718.2 252.4, 724.1 268.8, 729.9 247.1 C 735.8 225.5, 741.6 125.4, 747.5 123.7 C 753.4 121.9, 759.2 216.4, 765.1 236.8 C 770.9 257.3, 776.8 254.3, 782.7 246.2 C 788.5 238.0, 794.4 190.7, 800.2 187.8 C 806.1 185.0, 811.9 221.3, 817.8 229.0 C 823.7 236.7, 829.5 234.6, 835.4 233.9 C 841.2 233.3, 847.1 226.0, 853.0 225.1 C 858.8 224.2, 864.7 228.0, 870.5 228.5 C 876.4 229.0, 882.3 229.2, 888.1 228.0 C 894.0 226.9, 899.8 218.8, 905.7 221.7 C 911.6 224.5, 917.4 250.9, 923.3 245.2 C 929.1 239.5, 935.0 201.9, 940.8 187.4 C 946.7 172.8, 952.6 149.5, 958.4 158.0 C 964.3 166.5, 973.1 224.9, 976.0 238.3 L 976.0 254.0 L 62.0 254.0 Z" fill="url(#g)"/>
<path d="M 62.0 252.0 C 64.9 252.4, 73.7 254.3, 79.6 254.0 C 85.4 253.7, 91.3 250.1, 97.2 250.1 C 103.0 250.1, 108.9 253.3, 114.7 254.0 C 120.6 254.7, 126.4 254.2, 132.3 254.0 C 138.2 253.8, 144.0 252.5, 149.9 252.5 C 155.7 252.5, 161.6 253.8, 167.5 254.0 C 173.3 254.2, 179.2 253.9, 185.0 253.5 C 190.9 253.1, 196.8 252.0, 202.6 251.6 C 208.5 251.1, 214.3 250.7, 220.2 251.1 C 226.1 251.4, 231.9 253.2, 237.8 253.5 C 243.6 253.8, 249.5 255.1, 255.3 253.0 C 261.2 251.0, 267.1 241.8, 272.9 241.3 C 278.8 240.8, 284.6 249.8, 290.5 250.1 C 296.4 250.4, 302.2 243.6, 308.1 243.2 C 313.9 242.8, 319.8 246.3, 325.7 247.6 C 331.5 248.9, 337.4 251.6, 343.2 251.1 C 349.1 250.6, 354.9 245.8, 360.8 244.7 C 366.7 243.6, 372.5 243.4, 378.4 244.7 C 384.2 246.0, 390.1 251.1, 396.0 252.5 C 401.8 254.0, 407.7 253.5, 413.5 253.5 C 419.4 253.5, 425.3 252.4, 431.1 252.5 C 437.0 252.6, 442.8 253.8, 448.7 254.0 C 454.6 254.2, 460.4 253.5, 466.3 253.5 C 472.1 253.5, 478.0 253.9, 483.8 254.0 C 489.7 254.1, 495.6 254.2, 501.4 254.0 C 507.3 253.8, 513.1 253.2, 519.0 252.5 C 524.9 251.9, 530.7 250.7, 536.6 250.1 C 542.4 249.5, 548.3 248.4, 554.2 249.1 C 560.0 249.8, 565.9 253.2, 571.7 254.0 C 577.6 254.8, 583.4 254.6, 589.3 254.0 C 595.2 253.4, 601.0 250.8, 606.9 250.6 C 612.7 250.3, 618.6 252.4, 624.5 252.5 C 630.3 252.6, 636.2 251.1, 642.0 251.1 C 647.9 251.0, 653.8 251.7, 659.6 252.0 C 665.5 252.4, 671.3 252.7, 677.2 253.0 C 683.1 253.3, 688.9 253.9, 694.8 254.0 C 700.6 254.1, 706.5 254.7, 712.3 253.5 C 718.2 252.4, 724.1 268.8, 729.9 247.1 C 735.8 225.5, 741.6 125.4, 747.5 123.7 C 753.4 121.9, 759.2 216.4, 765.1 236.8 C 770.9 257.3, 776.8 254.3, 782.7 246.2 C 788.5 238.0, 794.4 190.7, 800.2 187.8 C 806.1 185.0, 811.9 221.3, 817.8 229.0 C 823.7 236.7, 829.5 234.6, 835.4 233.9 C 841.2 233.3, 847.1 226.0, 853.0 225.1 C 858.8 224.2, 864.7 228.0, 870.5 228.5 C 876.4 229.0, 882.3 229.2, 888.1 228.0 C 894.0 226.9, 899.8 218.8, 905.7 221.7 C 911.6 224.5, 917.4 250.9, 923.3 245.2 C 929.1 239.5, 935.0 201.9, 940.8 187.4 C 946.7 172.8, 952.6 149.5, 958.4 158.0 C 964.3 166.5, 973.1 224.9, 976.0 238.3" fill="none" stroke="#E23E63" stroke-width="2.5" stroke-linecap="round"/>
<text x="114.7" y="276" fill="#8b949e" font-size="11" text-anchor="middle">Sep</text>
<text x="185.0" y="276" fill="#8b949e" font-size="11" text-anchor="middle">Oct</text>
<text x="255.3" y="276" fill="#8b949e" font-size="11" text-anchor="middle">Nov</text>
<text x="343.2" y="276" fill="#8b949e" font-size="11" text-anchor="middle">Dec</text>
<text x="413.5" y="276" fill="#8b949e" font-size="11" text-anchor="middle">Jan</text>
<text x="483.8" y="276" fill="#8b949e" font-size="11" text-anchor="middle">Feb</text>
<text x="554.2" y="276" fill="#8b949e" font-size="11" text-anchor="middle">Mar</text>
<text x="642.0" y="276" fill="#8b949e" font-size="11" text-anchor="middle">Apr</text>
<text x="712.3" y="276" fill="#8b949e" font-size="11" text-anchor="middle">May</text>
<text x="800.2" y="276" fill="#8b949e" font-size="11" text-anchor="middle">Jun</text>
<text x="870.5" y="276" fill="#8b949e" font-size="11" text-anchor="middle">Jul</text>
<text x="940.8" y="276" fill="#8b949e" font-size="11" text-anchor="middle">Aug</text>
<text x="500" y="290" fill="#8b949e" font-size="10" text-anchor="middle" letter-spacing="1">CONTRIBUTIONS PER WEEK</text>
</svg>